Coordinates
version=1
nRows=7
nColumns=33
inDegrees=yes

Units are S.I. units (second, meters, Newtons, ...)
Angles are in degrees.

endheader
time	ground_thorax_rot_x	ground_thorax_rot_y	ground_thorax_rot_z	ground_thorax_tx	ground_thorax_ty	ground_thorax_tz	clav_prot_r	clav_elev_r	scapula_abduction_r	scapula_elevation_r	scapula_upward_rot_r	scapula_winging_r	shoulder_elv_r	plane_of_elev_r	axial_rot_r	elbow_flexion_r	pro_sup_r	wrist_flex_r	wrist_dev_r	clav_prot_l	clav_elev_l	scapula_abduction_l	scapula_elevation_l	scapula_upward_rot_l	scapula_winging_l	shoulder_elv_l	plane_of_elev_l	axial_rot_l	elbow_flexion_l	pro_sup_l	wrist_flex_l	wrist_dev_l
      4.69000000	     36.62874040	     17.54264504	     22.00619755	   -253.50363332	    827.58044781	      6.53210446	      1.06107266	     42.66028873	     45.00000000	     45.00000000	     12.17660308	   2405.71094358	  -3533.73505508	     19.60282337	   -179.99999979	   1092.34502723	   -150.59451799	     19.12918798	     14.00645664	      9.16953245	    -45.00000000	    -36.56214266	     45.00000000	    -45.00000000	  -2779.44029707	   -451.39470135	    138.88720807	    147.09336125	   2899.07779263	     98.69081996	     -2.08072801	    -12.78952044
      4.70000000	     36.52980973	     17.65126221	     22.14048669	   -251.31710434	    827.78371508	      6.44274220	      0.94539847	     42.61240170	     45.00000000	     45.00000000	     12.75580664	   2405.60849940	  -3533.76033420	     19.62715917	   -179.99999979	   1092.21643985	   -150.08513281	     19.07868303	     14.10918183	      9.16247678	    -45.00000000	    -36.67810929	     45.00000000	    -45.00000000	  -2779.60520062	   -451.32112646	    138.73363851	    147.74741526	   2899.18720307	     99.59359719	     -2.15045067	    -12.79192192
      4.71000000	     36.45456196	     17.78631107	     22.24953392	   -249.04460465	    827.95537170	      6.37195056	      0.83511745	     42.57555935	     45.00000000	     45.00000000	     13.25222713	   2405.56273012	  -3533.74490445	     19.67859494	   -179.99999979	   1092.08516825	   -149.52354965	     19.02299163	     14.20769395	      9.15239718	    -45.00000000	    -36.81890501	     45.00000000	    -45.00000000	  -2779.81508171	   -451.26650239	    138.56042365	    148.35139936	   2899.33560604	    100.53437644	     -2.23159631	    -12.80706406
      4.72000000	     36.30282039	     17.92605541	     22.51063127	   -246.67704999	    828.06973954	      6.31984856	      0.66602165	     42.57721974	     45.00000000	     45.00000000	     13.51861826	   2405.64416017	  -3533.86257361	     19.71113496	   -179.99999979	   1092.06478615	   -148.91154030	     18.97052798	     14.36182888	      9.27497899	    -45.00000000	    -36.85723276	     45.00000000	    -45.00000000	  -2779.93069615	   -451.13461676	    138.37838148	    148.88586622	   2899.47444137	    101.45467700	     -2.31492458	    -12.83154637
      4.73000000	     36.28952245	     17.81741793	     22.25348396	   -244.20382372	    828.10526364	      6.28157383	      0.69977234	     42.38204706	     45.00000000	     45.00000000	     15.61864146	   2405.53279552	  -3533.40907512	     19.40221086	   -179.99999979	   1092.04998930	   -147.91821220	     18.75047176	     14.17685855	      8.65901721	    -45.00000000	    -37.05642700	     45.00000000	    -45.00000000	  -2780.37970219	   -451.05919716	    138.22420558	    150.29446314	   2899.65791106	    103.28099388	     -2.36630081	    -12.75389753
      4.74000000	     36.05403907	     18.26784357	     22.89057190	   -241.61270963	    828.02693804	      6.24542850	      0.13482758	     42.53380759	     45.00000000	     45.00000000	     14.52666352	   2405.66636130	  -3533.85615456	     19.63853865	   -179.99999979	   1091.80379359	   -147.39670662	     18.86615221	     14.52750257	      9.44279303	    -45.00000000	    -37.11938313	     45.00000000	    -45.00000000	  -2780.32528251	   -450.99100169	    138.07534109	    149.94376272	   2899.74272364	    104.08640184	     -2.46562112	    -12.88723553
      4.75000000	     35.91689066	     18.50789566	     23.16084854	   -238.89708668	    827.82515620	      6.20515956	      0.34462172	     42.54048259	     45.00000000	     45.00000000	     14.57931543	   2405.67644619	  -3534.04850919	     19.70152819	   -179.99999979	   1091.64690380	   -146.78557629	     18.81462343	     14.61418868	      9.31486776	    -45.00000000	    -37.20791054	     45.00000000	    -45.00000000	  -2780.53222204	   -450.98215017	    137.96410333	    150.29441090	   2899.85517962	    105.02965786	     -2.52773974	    -12.89640408
